<svg xmlns="http://www.w3.org/2000/svg" viewBox="0 0 34.374 50"><defs><linearGradient id="g" x1="-.033" x2="1.033" y1=".955" y2=".224" gradientUnits="objectBoundingBox"><stop offset="0" stop-color="#2ebac6"/><stop offset="1" stop-color="#b6509e"/></linearGradient><style>.c2{fill:none}</style></defs><path fill="url(#g)" d="M180.169 115.261a17.126 17.126 0 0 0-34.244 0v31.353a1.9 1.9 0 1 0 3.807 0v-5.533a1.9 1.9 0 0 1 3.807 0v2.619a1.9 1.9 0 1 0 3.807 0v-2.623a1.9 1.9 0 0 1 1.9-1.9 1.9 1.9 0 0 1 1.9 1.9v.717a1.9 1.9 0 0 0 3.807 0v-.717a1.9 1.9 0 0 1 3.807 0v2.623a1.9 1.9 0 0 0 3.807 0v-2.623a1.9 1.9 0 0 1 1.9-1.9 1.9 1.9 0 0 1 1.9 1.9v5.533a1.9 1.9 0 0 0 3.807 0v-31.218a1.355 1.355 0 0 0-.005-.131zM156.733 118a3.527 3.527 0 1 1 3.047-3.494 3.294 3.294 0 0 1-3.047 3.494zm6.451 4.931c-1.527 0-2.766-.91-2.766-2.033s1.239-.445 2.766-.445 2.766-.678 2.766.445-1.237 2.035-2.766 2.035zm6.18-4.931a3.527 3.527 0 1 1 3.047-3.494 3.294 3.294 0 0 1-3.047 3.494z" transform="translate(-145.92 -98.518)"/><g transform="translate(7.766 12.496)"><ellipse cx="3.047" cy="3.494" class="c2" rx="3.047" ry="3.494"/><path d="M9.499 9.441c-1.527 0-2.766-.678-2.766.445s1.239 2.033 2.766 2.033 2.766-.91 2.766-2.033-1.242-.445-2.766-.445z" class="c2"/><ellipse cx="3.047" cy="3.494" class="c2" rx="3.047" ry="3.494" transform="translate(12.631)"/></g><path fill="#fff" d="M.257 14.179S3.569 3.657 17.315 3.761c17.058.206 16.939 19.315 16.939 19.315S35.792 9.682 27.793 3.74 13.025.434 9.92 1.599.925 7.706.257 14.179z" opacity=".06"/><path fill="#fff" d="M2.435 8.334s5.561-6.052 13.274-6.132 13.114 2.447 15.654 7.649a33.736 33.736 0 0 1 2.892 11.255s1.538-11.428-6.461-17.369S13.026.431 9.921 1.596 4.62 5.334 2.435 8.334z" opacity=".15"/><path d="M7.766 15.99s.214-3.736 3.047-3.741 3.047 3.741 3.047 3.741-.591-3.494-3.047-3.494c-1.755 0-3.126 2.705-3.047 3.494zm12.632 0s.214-3.736 3.047-3.741 3.047 3.741 3.047 3.741-.591-3.494-3.047-3.494c-1.756 0-3.127 2.705-3.047 3.494z" opacity=".21"/><path d="M10.813 11.796a4.02 4.02 0 0 0-3.445 4.195 3.7 3.7 0 0 0 3.445 3.867 3.584 3.584 0 0 0 3.281-3.867c0-2.678-1.931-4.195-3.281-4.195zm.046 7.631c-1.912.056-3.046-2.08-3.046-3.636a3.07 3.07 0 0 1 3.046-3.145c1.9 0 2.718 1.589 2.718 3.145s-.807 3.581-2.718 3.636zm12.696-7.631a4.02 4.02 0 0 0-3.445 4.195 3.7 3.7 0 0 0 3.445 3.867 3.584 3.584 0 0 0 3.281-3.867c0-2.678-1.926-4.195-3.281-4.195zm.046 7.631c-1.912.056-3.046-2.08-3.046-3.636a3.07 3.07 0 0 1 3.046-3.145c1.9 0 2.718 1.589 2.718 3.145s-.809 3.581-2.718 3.636zm-9.045 3.367a2.612 2.612 0 0 0 2.746 1.623 2.727 2.727 0 0 0 2.646-1.486 2.519 2.519 0 0 1-2.632 2.232 2.667 2.667 0 0 1-2.76-2.369z" opacity=".1"/><path d="M32.705 27.79v8.209m0-12.458v1.661M1.587 21.456v4.936" stroke="#fff" stroke-linecap="round" stroke-linejoin="round" stroke-miterlimit="10" opacity=".37"/></svg>