<svg xmlns="http://www.w3.org/2000/svg" viewBox="0 0 34.374 50"><path d="M34.249 16.743a17.126 17.126 0 0 0-34.244 0v31.353a1.903 1.903 0 1 0 3.807 0v-5.533a1.903 1.903 0 0 1 3.807 0v2.619a1.903 1.903 0 1 0 3.807 0v-2.623a1.9 1.9 0 0 1 1.9-1.9 1.9 1.9 0 0 1 1.9 1.9v.717a1.903 1.903 0 0 0 3.807 0v-.717a1.903 1.903 0 0 1 3.807 0v2.623a1.903 1.903 0 0 0 3.807 0v-2.623a1.9 1.9 0 0 1 1.9-1.9 1.9 1.9 0 0 1 1.9 1.9v5.533a1.903 1.903 0 0 0 3.807 0V16.874a1.355 1.355 0 0 0-.005-.131zm-23.436 2.739a3.527 3.527 0 1 1 3.047-3.494 3.294 3.294 0 0 1-3.047 3.494zm6.451 4.931c-1.527 0-2.766-.91-2.766-2.033s1.239-.445 2.766-.445 2.766-.678 2.766.445-1.237 2.035-2.766 2.035zm6.18-4.931a3.527 3.527 0 1 1 3.047-3.494 3.294 3.294 0 0 1-3.047 3.494z"/></svg>